%TF.GenerationSoftware,KiCad,Pcbnew,9.0.1*%
%TF.CreationDate,2025-05-12T16:28:47+02:00*%
%TF.ProjectId,Verst_rker,56657273-74e4-4726-9b65-722e6b696361,1*%
%TF.SameCoordinates,Original*%
%TF.FileFunction,Drillmap*%
%TF.FilePolarity,Positive*%
%FSLAX45Y45*%
G04 Gerber Fmt 4.5, Leading zero omitted, Abs format (unit mm)*
G04 Created by KiCad (PCBNEW 9.0.1) date 2025-05-12 16:28:47*
%MOMM*%
%LPD*%
G01*
G04 APERTURE LIST*
%ADD10C,0.050000*%
%ADD11C,0.200000*%
G04 APERTURE END LIST*
D10*
X3700000Y-5900000D02*
X13650000Y-5900000D01*
X13650000Y-11200000D01*
X3700000Y-11200000D01*
X3700000Y-5900000D01*
D11*
X3958277Y-11513984D02*
X3958277Y-11313984D01*
X3958277Y-11313984D02*
X4005896Y-11313984D01*
X4005896Y-11313984D02*
X4034467Y-11323508D01*
X4034467Y-11323508D02*
X4053515Y-11342555D01*
X4053515Y-11342555D02*
X4063039Y-11361603D01*
X4063039Y-11361603D02*
X4072562Y-11399698D01*
X4072562Y-11399698D02*
X4072562Y-11428269D01*
X4072562Y-11428269D02*
X4063039Y-11466365D01*
X4063039Y-11466365D02*
X4053515Y-11485412D01*
X4053515Y-11485412D02*
X4034467Y-11504460D01*
X4034467Y-11504460D02*
X4005896Y-11513984D01*
X4005896Y-11513984D02*
X3958277Y-11513984D01*
X4158277Y-11513984D02*
X4158277Y-11380650D01*
X4158277Y-11418746D02*
X4167801Y-11399698D01*
X4167801Y-11399698D02*
X4177324Y-11390174D01*
X4177324Y-11390174D02*
X4196372Y-11380650D01*
X4196372Y-11380650D02*
X4215420Y-11380650D01*
X4282086Y-11513984D02*
X4282086Y-11380650D01*
X4282086Y-11313984D02*
X4272563Y-11323508D01*
X4272563Y-11323508D02*
X4282086Y-11333031D01*
X4282086Y-11333031D02*
X4291610Y-11323508D01*
X4291610Y-11323508D02*
X4282086Y-11313984D01*
X4282086Y-11313984D02*
X4282086Y-11333031D01*
X4405896Y-11513984D02*
X4386848Y-11504460D01*
X4386848Y-11504460D02*
X4377324Y-11485412D01*
X4377324Y-11485412D02*
X4377324Y-11313984D01*
X4510658Y-11513984D02*
X4491610Y-11504460D01*
X4491610Y-11504460D02*
X4482086Y-11485412D01*
X4482086Y-11485412D02*
X4482086Y-11313984D01*
X4739229Y-11513984D02*
X4739229Y-11313984D01*
X4739229Y-11313984D02*
X4805896Y-11456841D01*
X4805896Y-11456841D02*
X4872563Y-11313984D01*
X4872563Y-11313984D02*
X4872563Y-11513984D01*
X5053515Y-11513984D02*
X5053515Y-11409222D01*
X5053515Y-11409222D02*
X5043991Y-11390174D01*
X5043991Y-11390174D02*
X5024944Y-11380650D01*
X5024944Y-11380650D02*
X4986848Y-11380650D01*
X4986848Y-11380650D02*
X4967801Y-11390174D01*
X5053515Y-11504460D02*
X5034467Y-11513984D01*
X5034467Y-11513984D02*
X4986848Y-11513984D01*
X4986848Y-11513984D02*
X4967801Y-11504460D01*
X4967801Y-11504460D02*
X4958277Y-11485412D01*
X4958277Y-11485412D02*
X4958277Y-11466365D01*
X4958277Y-11466365D02*
X4967801Y-11447317D01*
X4967801Y-11447317D02*
X4986848Y-11437793D01*
X4986848Y-11437793D02*
X5034467Y-11437793D01*
X5034467Y-11437793D02*
X5053515Y-11428269D01*
X5148753Y-11380650D02*
X5148753Y-11580650D01*
X5148753Y-11390174D02*
X5167801Y-11380650D01*
X5167801Y-11380650D02*
X5205896Y-11380650D01*
X5205896Y-11380650D02*
X5224944Y-11390174D01*
X5224944Y-11390174D02*
X5234467Y-11399698D01*
X5234467Y-11399698D02*
X5243991Y-11418746D01*
X5243991Y-11418746D02*
X5243991Y-11475888D01*
X5243991Y-11475888D02*
X5234467Y-11494936D01*
X5234467Y-11494936D02*
X5224944Y-11504460D01*
X5224944Y-11504460D02*
X5205896Y-11513984D01*
X5205896Y-11513984D02*
X5167801Y-11513984D01*
X5167801Y-11513984D02*
X5148753Y-11504460D01*
X5329705Y-11494936D02*
X5339229Y-11504460D01*
X5339229Y-11504460D02*
X5329705Y-11513984D01*
X5329705Y-11513984D02*
X5320182Y-11504460D01*
X5320182Y-11504460D02*
X5329705Y-11494936D01*
X5329705Y-11494936D02*
X5329705Y-11513984D01*
X5329705Y-11390174D02*
X5339229Y-11399698D01*
X5339229Y-11399698D02*
X5329705Y-11409222D01*
X5329705Y-11409222D02*
X5320182Y-11399698D01*
X5320182Y-11399698D02*
X5329705Y-11390174D01*
X5329705Y-11390174D02*
X5329705Y-11409222D01*
M02*
