%TF.GenerationSoftware,KiCad,Pcbnew,9.0.1*%
%TF.CreationDate,2025-05-12T16:26:17+02:00*%
%TF.ProjectId,Verst_rker,56657273-74e4-4726-9b65-722e6b696361,1*%
%TF.SameCoordinates,Original*%
%TF.FileFunction,Soldermask,Top*%
%TF.FilePolarity,Negative*%
%FSLAX46Y46*%
G04 Gerber Fmt 4.6, Leading zero omitted, Abs format (unit mm)*
G04 Created by KiCad (PCBNEW 9.0.1) date 2025-05-12 16:26:17*
%MOMM*%
%LPD*%
G01*
G04 APERTURE LIST*
G04 Aperture macros list*
%AMRoundRect*
0 Rectangle with rounded corners*
0 $1 Rounding radius*
0 $2 $3 $4 $5 $6 $7 $8 $9 X,Y pos of 4 corners*
0 Add a 4 corners polygon primitive as box body*
4,1,4,$2,$3,$4,$5,$6,$7,$8,$9,$2,$3,0*
0 Add four circle primitives for the rounded corners*
1,1,$1+$1,$2,$3*
1,1,$1+$1,$4,$5*
1,1,$1+$1,$6,$7*
1,1,$1+$1,$8,$9*
0 Add four rect primitives between the rounded corners*
20,1,$1+$1,$2,$3,$4,$5,0*
20,1,$1+$1,$4,$5,$6,$7,0*
20,1,$1+$1,$6,$7,$8,$9,0*
20,1,$1+$1,$8,$9,$2,$3,0*%
G04 Aperture macros list end*
%ADD10RoundRect,0.250000X-0.400000X-0.625000X0.400000X-0.625000X0.400000X0.625000X-0.400000X0.625000X0*%
%ADD11RoundRect,0.250000X0.650000X-0.412500X0.650000X0.412500X-0.650000X0.412500X-0.650000X-0.412500X0*%
%ADD12C,2.000000*%
%ADD13RoundRect,0.102000X0.937500X0.937500X-0.937500X0.937500X-0.937500X-0.937500X0.937500X-0.937500X0*%
%ADD14C,2.079000*%
%ADD15RoundRect,0.250000X-0.350000X-0.450000X0.350000X-0.450000X0.350000X0.450000X-0.350000X0.450000X0*%
%ADD16C,3.000000*%
%ADD17RoundRect,0.250000X-0.625000X0.400000X-0.625000X-0.400000X0.625000X-0.400000X0.625000X0.400000X0*%
%ADD18RoundRect,0.250000X-0.300000X0.300000X-0.300000X-0.300000X0.300000X-0.300000X0.300000X0.300000X0*%
%ADD19RoundRect,0.200000X0.200000X-0.750000X0.200000X0.750000X-0.200000X0.750000X-0.200000X-0.750000X0*%
%ADD20C,2.600000*%
%ADD21C,4.400000*%
%ADD22RoundRect,0.150000X0.587500X0.150000X-0.587500X0.150000X-0.587500X-0.150000X0.587500X-0.150000X0*%
%ADD23RoundRect,0.250000X-0.475000X0.337500X-0.475000X-0.337500X0.475000X-0.337500X0.475000X0.337500X0*%
%ADD24RoundRect,0.250000X-0.650000X0.412500X-0.650000X-0.412500X0.650000X-0.412500X0.650000X0.412500X0*%
%ADD25RoundRect,0.250000X0.400000X0.625000X-0.400000X0.625000X-0.400000X-0.625000X0.400000X-0.625000X0*%
%ADD26RoundRect,0.250000X0.350000X0.450000X-0.350000X0.450000X-0.350000X-0.450000X0.350000X-0.450000X0*%
%ADD27RoundRect,0.250000X0.337500X0.475000X-0.337500X0.475000X-0.337500X-0.475000X0.337500X-0.475000X0*%
%ADD28RoundRect,0.250000X0.300000X-0.300000X0.300000X0.300000X-0.300000X0.300000X-0.300000X-0.300000X0*%
%ADD29RoundRect,0.250000X-0.300000X-0.300000X0.300000X-0.300000X0.300000X0.300000X-0.300000X0.300000X0*%
%ADD30RoundRect,0.237500X-0.237500X0.300000X-0.237500X-0.300000X0.237500X-0.300000X0.237500X0.300000X0*%
%ADD31RoundRect,0.237500X0.237500X-0.300000X0.237500X0.300000X-0.237500X0.300000X-0.237500X-0.300000X0*%
%ADD32RoundRect,0.150000X0.150000X-0.587500X0.150000X0.587500X-0.150000X0.587500X-0.150000X-0.587500X0*%
%ADD33RoundRect,0.237500X0.300000X0.237500X-0.300000X0.237500X-0.300000X-0.237500X0.300000X-0.237500X0*%
%ADD34RoundRect,0.237500X0.250000X0.237500X-0.250000X0.237500X-0.250000X-0.237500X0.250000X-0.237500X0*%
%ADD35RoundRect,0.250000X0.300000X0.300000X-0.300000X0.300000X-0.300000X-0.300000X0.300000X-0.300000X0*%
%ADD36RoundRect,0.250000X0.450000X-0.350000X0.450000X0.350000X-0.450000X0.350000X-0.450000X-0.350000X0*%
%ADD37RoundRect,0.250000X0.625000X-0.400000X0.625000X0.400000X-0.625000X0.400000X-0.625000X-0.400000X0*%
G04 APERTURE END LIST*
D10*
X77900000Y-83000000D03*
X81000000Y-83000000D03*
D11*
X73000000Y-96062500D03*
X73000000Y-92937500D03*
D12*
X72450000Y-107000000D03*
D13*
X101290000Y-72000000D03*
D14*
X99000000Y-72000000D03*
X96710000Y-72000000D03*
D12*
X77450000Y-107000000D03*
D15*
X68000000Y-98500000D03*
X70000000Y-98500000D03*
D16*
X116350000Y-82000000D03*
X116350000Y-93430000D03*
X122700000Y-82000000D03*
X122700000Y-93430000D03*
X110000000Y-82000000D03*
X110000000Y-93430000D03*
D17*
X88500000Y-87950000D03*
X88500000Y-91050000D03*
D18*
X97500000Y-86100000D03*
X97500000Y-88900000D03*
D19*
X82050000Y-92000000D03*
X83950000Y-92000000D03*
X83000000Y-89000000D03*
D20*
X56675000Y-107448929D03*
D21*
X56675000Y-107448929D03*
D12*
X70500000Y-63500000D03*
D22*
X85387500Y-83450000D03*
X85387500Y-81550000D03*
X83512500Y-82500000D03*
D23*
X97000000Y-81062500D03*
X97000000Y-83137500D03*
D24*
X90500000Y-67937500D03*
X90500000Y-71062500D03*
D25*
X80500000Y-78000000D03*
X77400000Y-78000000D03*
D20*
X124000000Y-65500000D03*
D21*
X124000000Y-65500000D03*
D17*
X100000000Y-85950000D03*
X100000000Y-89050000D03*
D26*
X64250000Y-78500000D03*
X62250000Y-78500000D03*
D16*
X57100000Y-94430000D03*
X57100000Y-83000000D03*
X50750000Y-94430000D03*
X50750000Y-83000000D03*
X63450000Y-94430000D03*
X63450000Y-83000000D03*
D12*
X94000000Y-63500000D03*
D20*
X116775000Y-65275000D03*
D21*
X116775000Y-65275000D03*
D27*
X80487500Y-85500000D03*
X78412500Y-85500000D03*
D20*
X100580000Y-106000000D03*
D21*
X100580000Y-106000000D03*
D12*
X74500000Y-63500000D03*
X119000000Y-108000000D03*
D28*
X100500000Y-97400000D03*
X100500000Y-94600000D03*
D13*
X96290000Y-95995000D03*
D14*
X94000000Y-95995000D03*
X91710000Y-95995000D03*
D20*
X93580000Y-106000000D03*
D21*
X93580000Y-106000000D03*
D20*
X41500000Y-64000000D03*
D21*
X41500000Y-64000000D03*
D20*
X107000000Y-106000000D03*
D21*
X107000000Y-106000000D03*
D29*
X75515057Y-93074827D03*
X78315057Y-93074827D03*
D30*
X81000000Y-69137500D03*
X81000000Y-70862500D03*
D15*
X99000000Y-81000000D03*
X101000000Y-81000000D03*
D31*
X72223900Y-100112500D03*
X72223900Y-98387500D03*
D32*
X74000000Y-84437500D03*
X75900000Y-84437500D03*
X74950000Y-82562500D03*
D33*
X97870000Y-98995000D03*
X96145000Y-98995000D03*
D20*
X132000000Y-64000000D03*
D21*
X132000000Y-64000000D03*
D34*
X84412500Y-85500000D03*
X82587500Y-85500000D03*
D10*
X85950000Y-78000000D03*
X89050000Y-78000000D03*
D19*
X91050000Y-91000000D03*
X92950000Y-91000000D03*
X92000000Y-88000000D03*
D10*
X92450000Y-77500000D03*
X95550000Y-77500000D03*
D12*
X88500000Y-63500000D03*
D20*
X132000000Y-107000000D03*
D21*
X132000000Y-107000000D03*
D12*
X99500000Y-63500000D03*
D33*
X81862500Y-95500000D03*
X80137500Y-95500000D03*
D12*
X78500000Y-63500000D03*
D28*
X88000000Y-82900000D03*
X88000000Y-80100000D03*
D35*
X78315057Y-89074827D03*
X75515057Y-89074827D03*
D12*
X83000000Y-107000000D03*
D20*
X48675000Y-107448929D03*
D21*
X48675000Y-107448929D03*
D36*
X86000000Y-91000000D03*
X86000000Y-89000000D03*
D25*
X70050000Y-78500000D03*
X66950000Y-78500000D03*
D20*
X41500000Y-107000000D03*
D21*
X41500000Y-107000000D03*
D20*
X110000000Y-65500000D03*
D21*
X110000000Y-65500000D03*
D20*
X64175000Y-107448929D03*
D21*
X64175000Y-107448929D03*
D17*
X105000000Y-72450000D03*
X105000000Y-75550000D03*
D12*
X87500000Y-94000000D03*
D37*
X65500000Y-101550000D03*
X65500000Y-98450000D03*
D10*
X85950000Y-75000000D03*
X89050000Y-75000000D03*
D12*
X82500000Y-63500000D03*
D18*
X95000000Y-88600000D03*
X95000000Y-91400000D03*
M02*
